<?xml version="1.0" encoding="iso-8859-1"?>
<!-- Generator: Adobe Illustrator 19.0.0, SVG Export Plug-In . SVG Version: 6.00 Build 0)  -->
<svg version="1.1" id="Layer_1" xmlns="http://www.w3.org/2000/svg" xmlns:xlink="http://www.w3.org/1999/xlink" x="0px" y="0px"
	 viewBox="0 0 512.001 512.001" style="enable-background:new 0 0 512.001 512.001;" xml:space="preserve">
<polygon style="fill:#E6E6E6;" points="464.691,28.009 464.691,165.699 47.567,356.903 47.567,28.009 "/>
<path style="fill:#CCCCCC;" d="M464.691,136.744v28.955L47.567,356.903V57.547c2.358-0.384,4.768-0.583,7.232-0.583h111.45
	c18.385,0,34.916,11.259,41.632,28.373l8.822,22.438c6.729,17.127,23.246,28.386,41.632,28.386h199.124
	C459.923,136.161,462.347,136.36,464.691,136.744z"/>
<path style="fill:#F95428;" d="M502.197,441.974v-232.13c0-24.706-20.028-44.734-44.734-44.734H258.336
	c-18.393,0-34.911-11.258-41.637-28.377l-8.815-22.44c-6.725-17.119-23.244-28.377-41.637-28.377H54.799
	c-24.706,0-44.734,20.028-44.734,44.734v311.323c0,22.412,18.168,40.58,40.58,40.58h410.971
	C484.029,482.554,502.197,464.386,502.197,441.974z"/>
<path style="fill:#E54728;" d="M57.748,441.974V130.65c0-24.706,20.028-44.734,44.734-44.734H54.799
	c-24.706,0-44.734,20.028-44.734,44.734v311.325c0,22.412,18.168,40.58,40.58,40.58h47.682
	C75.916,482.554,57.748,464.386,57.748,441.974z"/>
<path d="M457.332,155.892H258.205c-14.409,0-27.122-8.665-32.39-22.075L217,111.377c-8.276-21.066-28.248-34.679-50.883-34.679
	H57.372V38.664h397.255v98.799c0,5.486,4.447,9.934,9.934,9.934c5.488,0,9.934-4.448,9.934-9.934V28.73
	c0-5.486-4.447-9.934-9.934-9.934H47.437c-5.488,0-9.934,4.448-9.934,9.934v50.746C15.745,86.692,0,107.219,0,131.367v58.415
	c0,5.486,4.447,9.934,9.934,9.934s9.934-4.448,9.934-9.934v-58.415c0-19.189,15.612-34.799,34.799-34.799h111.448
	c14.407,0,27.122,8.665,32.39,22.075l8.815,22.44c8.276,21.066,28.248,34.679,50.882,34.679h199.127
	c19.188,0,34.799,15.612,34.799,34.799v232.132c0,16.898-13.748,30.646-30.646,30.646H50.514
	c-16.898-0.001-30.646-13.748-30.646-30.647V225.544c0-5.486-4.447-9.934-9.934-9.934S0,220.057,0,225.544v217.148
	c0,27.853,22.66,50.514,50.514,50.514h410.973c27.853,0,50.514-22.66,50.514-50.514v-232.13
	C512,180.417,487.475,155.892,457.332,155.892z"/>
<path d="M327.182,217.223h-10.656c-5.488,0-9.934,4.448-9.934,9.934v60.896c0,5.486,4.447,9.934,9.934,9.934
	c5.488,0,9.934-4.448,9.934-9.934v-11.387h0.722c16.389,0,29.721-13.332,29.721-29.721S343.571,217.223,327.182,217.223z
	 M327.182,256.796h-0.722v-19.705h0.722c5.433,0,9.852,4.42,9.852,9.852C337.035,252.376,332.615,256.796,327.182,256.796z"/>
<path d="M206.314,217.223H165.03c-5.488,0-9.934,4.448-9.934,9.934s4.447,9.934,9.934,9.934h10.708v50.962
	c0,5.486,4.447,9.934,9.934,9.934s9.934-4.448,9.934-9.934v-50.962h10.708c5.488,0,9.934-4.448,9.934-9.934
	S211.801,217.223,206.314,217.223z"/>
<path d="M258.626,217.223h-3.304c-15.208,0-27.58,12.373-27.58,27.58v25.604c0,15.208,12.373,27.58,27.58,27.58h3.304
	c15.208,0,27.58-12.373,27.58-27.58v-25.604C286.206,229.594,273.834,217.223,258.626,217.223z M266.338,270.406
	c0,4.252-3.46,7.712-7.712,7.712h-3.304c-4.252,0-7.712-3.46-7.712-7.712v-25.604c0-4.252,3.46-7.712,7.712-7.712h3.304
	c4.252,0,7.712,3.46,7.712,7.712V270.406z"/>
<path d="M126.635,342.399v60.895c0,5.486,4.447,9.934,9.934,9.934h26.098c5.488,0,9.934-4.448,9.934-9.934s-4.447-9.934-9.934-9.934
	h-16.164v-10.144h10.945c5.488,0,9.934-4.448,9.934-9.934s-4.447-9.934-9.934-9.934h-10.945v-11.014h16.164
	c5.488,0,9.934-4.448,9.934-9.934s-4.447-9.934-9.934-9.934H136.57C131.083,332.464,126.635,336.912,126.635,342.399z"/>
<path d="M366.271,352.333c5.488,0,9.934-4.448,9.934-9.934s-4.447-9.934-9.934-9.934h-26.098c-5.488,0-9.934,4.448-9.934,9.934
	v60.895c0,5.486,4.447,9.934,9.934,9.934h26.098c5.488,0,9.934-4.448,9.934-9.934s-4.447-9.934-9.934-9.934h-16.164v-10.144h10.945
	c5.488,0,9.934-4.448,9.934-9.934s-4.447-9.934-9.934-9.934h-10.945v-11.014H366.271z"/>
<path d="M421.087,413.228c5.488,0,9.934-4.448,9.934-9.934v-50.961h10.708c5.488,0,9.934-4.448,9.934-9.934
	s-4.447-9.934-9.934-9.934h-41.285c-5.488,0-9.934,4.448-9.934,9.934s4.447,9.934,9.934,9.934h10.708v50.961
	C411.153,408.78,415.601,413.228,421.087,413.228z"/>
<path d="M189.013,361.696v22.299c0,16.119,13.113,29.232,29.232,29.232c7.808,0,15.149-3.04,20.67-8.562
	c3.88-3.88,3.88-10.17,0-14.048c-3.881-3.88-10.17-3.88-14.05,0c-1.768,1.768-4.118,2.742-6.62,2.742
	c-5.163,0-9.363-4.2-9.363-9.363v-22.299c0-5.163,4.2-9.363,9.363-9.363c3.774,0,7.161,2.247,8.632,5.722
	c2.137,5.053,7.967,7.418,13.019,5.278c5.052-2.138,7.418-7.966,5.278-13.019c-4.587-10.844-15.157-17.85-26.93-17.85
	C202.127,332.464,189.013,345.578,189.013,361.696z"/>
<path d="M278.932,332.464h-10.656c-5.488,0-9.934,4.448-9.934,9.934v60.895c0,5.486,4.447,9.934,9.934,9.934
	c5.488,0,9.934-4.448,9.934-9.934v-11.387h0.722c2.001,0,3.957-0.201,5.848-0.58l8.888,16.646c1.79,3.35,5.221,5.257,8.773,5.257
	c1.578,0,3.179-0.378,4.669-1.172c4.84-2.584,6.669-8.603,4.085-13.442l-9.353-17.518c4.252-5.142,6.811-11.734,6.811-18.912
	C308.654,345.797,295.321,332.464,278.932,332.464z M278.21,372.039v-19.704h0.722c5.433,0,9.852,4.42,9.852,9.852
	c0,5.433-4.42,9.852-9.852,9.852L278.21,372.039L278.21,372.039z"/>
<path d="M86.216,393.359H70.27c-5.488,0-9.934,4.448-9.934,9.934s4.447,9.934,9.934,9.934h15.945
	c13.872,0,25.156-11.285,25.156-25.164c0-13.871-11.285-25.156-25.156-25.156h-0.725c-2.915,0-5.286-2.372-5.286-5.288
	c0-2.915,2.371-5.288,5.286-5.288h15.947c5.488,0,9.934-4.448,9.934-9.934s-4.447-9.934-9.934-9.934H85.491
	c-13.871,0-25.155,11.285-25.155,25.156c0,13.871,11.285,25.156,25.155,25.156h0.725c2.915,0,5.288,2.372,5.288,5.296
	C91.503,390.988,89.131,393.359,86.216,393.359z"/>
<g>
</g>
<g>
</g>
<g>
</g>
<g>
</g>
<g>
</g>
<g>
</g>
<g>
</g>
<g>
</g>
<g>
</g>
<g>
</g>
<g>
</g>
<g>
</g>
<g>
</g>
<g>
</g>
<g>
</g>
</svg>
